<svg width="610" height="384" viewBox="0 0 610 384" fill="none" xmlns="http://www.w3.org/2000/svg">
<g clip-path="url(#clip0)">
<path opacity="0.1" d="M603.534 356.271C601.167 363.011 598.252 369.478 594.83 375.585C593.224 378.497 591.463 381.291 589.557 383.95C589.54 383.977 589.521 384.002 589.499 384.024H0L0.079565 383.95C0.61 383.473 3.72365 380.566 8.56652 375.585C12.0409 372.017 16.401 367.378 21.297 361.797C61.3395 316.359 138.258 208.807 74.1972 110.281C14.6453 18.6886 78.7643 2.06776 121.061 0.127841C137.312 -0.606637 153.524 2.451 168.726 9.11756C188.267 17.685 223.981 30.8177 270.511 36.8394C272.039 37.0353 273.577 37.2311 275.137 37.4086C299.771 40.3023 324.571 40.8223 349.281 38.9629V38.9629C350.007 38.914 350.739 38.8528 351.477 38.7916C375.92 36.8114 400.178 32.482 423.998 25.8486C425.541 25.4141 427.064 25.0041 428.581 24.5941C507.95 3.40795 581.118 75.6133 562.823 157.212C556.06 187.394 557.779 219.565 580.328 245.592C617.246 288.074 612.774 329.914 603.534 356.271Z" fill="#FFB800"/>
<path d="M603.534 356.272C601.166 363.012 598.252 369.479 594.829 375.586C593.224 378.498 591.463 381.292 589.557 383.951H0.0791473C0.609582 383.474 3.72323 380.567 8.5661 375.586C12.0405 372.018 16.4006 367.379 21.2965 361.798L83.4264 346.989C84.2291 346.797 85.0467 346.701 85.8664 346.701L152.102 346.591H152.171L184.978 346.542H185.052L212.741 346.505H230.866H249.431L325.506 346.383H325.628H331.521H341.875H354.802H358.239L371.304 346.211H375.622L413.622 346.15H425.758H431.593L475.487 346.083H488.556L530.132 346.016L565.225 345.967C566.203 345.967 567.177 346.101 568.127 346.364L603.534 356.272Z" fill="#454B69"/>
<path opacity="0.4" d="M8.5661 375.586H594.829C593.224 378.498 591.463 381.292 589.557 383.951H0.0791473C0.598973 383.443 3.71263 380.536 8.5661 375.586Z" fill="black"/>
<path d="M388.925 185.265L387.748 185.528L334.513 197.327C319.051 200.754 303.366 204.199 287.66 202.884C276.282 201.929 265.652 198.037 254.72 194.622C248.541 192.688 241.99 191.917 239.894 183.937C237.004 172.922 241.709 156.613 242.817 145.451C243.878 134.497 244.504 123.267 242.616 112.442C242.196 110.009 241.643 107.61 240.961 105.257C239.067 98.7768 236.091 92.0391 237.698 85.4605C238.966 80.2405 242.833 76.5136 246.451 73.0621C253.537 66.3306 260.772 58.7851 263.584 48.6938C264.963 43.7981 265.223 38.5291 266.708 33.6702C269.525 24.4295 276.601 17.5205 284.472 13.8609C292.344 10.2014 301.001 9.42422 309.493 9.42422C316.991 9.42471 324.482 9.99917 331.914 11.1438C340.019 12.3678 348.199 14.3811 355.322 19.0198C362.446 23.6585 368.451 31.259 370.111 40.5241C372.461 53.6262 365.936 67.579 369.437 80.3017C371.198 86.7334 375.272 91.9289 378.099 97.816C380.405 102.741 381.827 108.15 382.283 113.722C382.739 119.294 382.218 124.915 380.751 130.25C377.367 142.348 369.082 154.588 373.325 166.319C376.025 173.779 382.921 177.763 387.727 183.674C388.155 184.205 388.554 184.735 388.925 185.265Z" fill="#454B69"/>
<path opacity="0.1" d="M387.748 183.723V185.528L334.513 197.327C319.051 200.754 303.366 204.199 287.66 202.884C276.282 201.929 265.652 198.037 254.72 194.622C248.541 192.688 241.99 191.917 239.894 183.937C237.004 172.922 241.709 156.613 242.817 145.451C243.878 134.497 260.21 94.5053 258.322 83.6797L355.922 88.5754C356.579 94.5542 382.375 124.565 380.767 130.299C377.383 142.397 369.098 154.637 373.341 166.368C376.046 173.828 382.942 177.812 387.748 183.723Z" fill="black"/>
<path d="M288.026 153.443C288.604 157.231 288.912 161.399 287.236 164.703C285.003 169.134 280.133 170.548 275.778 171.551L260.661 175.039C259.632 175.278 258.539 175.547 257.77 176.361C256.863 177.298 256.555 178.779 256.423 180.174C255.813 186.489 257.749 192.713 259.515 198.729C263.085 210.913 266.082 223.354 270.596 235.11C275.11 246.865 281.305 258.089 290.148 265.946C298.99 273.804 310.692 277.99 321.518 274.918C330.949 272.244 338.683 264.563 345.35 256.418C350.851 249.687 355.996 242.343 358.664 233.61C360.505 227.613 361.104 221.224 361.682 214.897C362.577 205.195 363.472 195.493 364.366 185.792C364.785 181.239 365.061 176.117 362.499 172.622C361.375 171.086 359.847 170.064 358.287 169.116C352.485 165.56 346.374 162.623 340.974 158.339C335.574 154.055 330.784 148.156 329.145 140.837C328.164 136.443 328.339 131.657 326.668 127.563C324.801 122.974 320.833 119.865 316.59 118.5C312.346 117.136 307.87 117.319 303.499 117.888C299.128 118.457 282.281 119.914 280.473 125.599C279.502 128.659 283.528 135.225 284.483 138.236C286.054 143.173 287.24 148.263 288.026 153.443Z" fill="#EFB7B9"/>
<path opacity="0.1" d="M288.026 153.443C288.604 157.231 288.912 161.399 287.236 164.703C285.003 169.134 280.133 170.548 275.778 171.551L260.661 175.039C259.632 175.278 258.539 175.547 257.77 176.361C256.863 177.298 256.555 178.779 256.423 180.174C255.813 186.489 257.749 192.713 259.515 198.729C263.085 210.913 266.082 223.354 270.596 235.11C275.11 246.865 281.305 258.089 290.148 265.946C298.99 273.804 310.692 277.99 321.518 274.918C330.949 272.244 338.683 264.563 345.35 256.418C350.851 249.687 355.996 242.343 358.664 233.61C360.505 227.613 361.104 221.224 361.682 214.897C362.577 205.195 363.472 195.493 364.366 185.792C364.785 181.239 365.061 176.117 362.499 172.622C361.375 171.086 359.847 170.064 358.287 169.116C352.485 165.56 346.374 162.623 340.974 158.339C335.574 154.055 330.784 148.156 329.145 140.837C328.164 136.443 328.339 131.657 326.668 127.563C324.801 122.974 320.833 119.865 316.59 118.5C312.346 117.136 307.87 117.319 303.499 117.888C299.128 118.457 282.281 119.914 280.473 125.599C279.502 128.659 283.528 135.225 284.483 138.236C286.054 143.173 287.24 148.263 288.026 153.443Z" fill="black"/>
<path d="M324.409 219.988L333.272 198.337C337.425 188.191 341.669 177.53 341.229 166.325C341.144 164.098 341.123 161.313 342.82 160.303C343.557 159.956 344.36 159.838 345.149 159.961C354.48 160.511 363.688 162.66 372.471 166.337C374.174 167.047 375.919 167.867 377.113 169.434C378.306 171.001 378.789 173.106 379.197 175.125C380.588 181.953 381.604 188.876 382.237 195.852C383.828 213.122 383.038 230.544 382.237 247.869L379.881 300.761C379.894 301.511 379.762 302.255 379.494 302.94C378.911 304.163 377.595 304.573 376.412 304.806C371.856 305.706 367.199 305.522 362.584 305.32C330.121 303.9 297.489 301.722 265.239 306.262C265.384 300.759 265.308 295.251 265.011 289.739C263.732 265.94 258.385 242.722 253.134 219.664C250.073 206.201 247.108 191.513 252.036 178.828C252.761 176.824 253.802 174.994 255.107 173.43C257.203 171.062 260.062 169.813 262.894 168.92C267.78 167.387 272.841 166.726 277.9 166.962L311.344 250.966C312.872 254.809 314.129 258.854 315.651 262.648C317.02 256.094 315.375 248.414 317.02 241.309C318.791 233.935 321.581 226.879 324.409 219.988Z" fill="white"/>
<path d="M320.913 277.788C326.896 278.222 332.71 274.685 336.826 269.686C340.942 264.686 343.658 258.346 345.955 251.939C349.257 242.806 351.881 233.366 353.8 223.721C355.391 215.521 356.521 207.033 355.423 198.722C353.906 187.248 348.278 176.82 347.318 165.266C347.154 163.247 347.26 160.885 348.665 159.667C349.535 158.914 350.681 158.81 351.763 158.737C361.767 158.051 372.758 158.18 380.507 165.505C382.868 167.733 384.783 170.517 387.09 172.812C392.585 178.32 400.351 181.122 403.878 188.435C405.109 190.981 405.698 193.863 406.557 196.605C408.583 203.092 412.089 208.795 415.574 214.407C412.196 230.857 408.313 247.318 404.934 263.768C402.955 273.419 400.961 283.106 397.853 292.346C395.816 298.405 393.254 304.586 393.88 311.073C394.129 313.624 394.866 316.066 395.508 318.526C397.758 327.161 398.812 336.151 398.632 345.165L247.278 345.593C254.529 333.599 256.656 318.887 255.919 304.292C255.563 297.297 254.195 290.26 251.145 284.207C246.339 274.722 237.884 268.541 229.551 263.248C223.716 259.576 217.452 280.236 211.145 277.867C212.163 269.557 212.63 237.478 212.206 229.112C212.068 226.371 211.856 223.556 212.588 220.937C213.086 219.144 214.004 217.54 214.625 215.796C217.112 208.814 214.741 199.885 218.762 193.943C221.541 189.812 226.416 188.637 230.378 186.092C234.447 183.472 237.592 179.36 241.136 175.847C248.088 169.036 256.584 164.66 265.621 163.235C268.257 168.032 269.859 173.488 270.294 179.146C270.564 182.701 270.368 186.306 270.798 189.843C271.386 194.635 273.105 199.132 274.808 203.563C281.9 222.038 289.018 240.568 298.004 257.917C300.544 262.813 303.308 267.709 306.989 271.521C310.67 275.334 315.969 278.057 320.913 277.788Z" fill="#FFB800"/>
<path opacity="0.1" d="M320.913 277.788C326.896 278.222 332.71 274.685 336.826 269.686C340.942 264.686 343.658 258.346 345.955 251.939C349.257 242.806 351.881 233.366 353.8 223.721C355.391 215.521 356.521 207.033 355.423 198.722C353.906 187.248 348.278 176.82 347.318 165.266C347.154 163.247 347.26 160.885 348.665 159.667C349.535 158.914 350.681 158.81 351.763 158.737C361.767 158.051 372.758 158.18 380.507 165.505C382.868 167.733 384.783 170.517 387.09 172.812C392.585 178.32 400.351 181.122 403.878 188.435C405.109 190.981 405.698 193.863 406.557 196.605C408.583 203.092 412.089 208.795 415.574 214.407C412.196 230.857 408.313 247.318 404.934 263.768C402.955 273.419 400.961 283.106 397.853 292.346C395.816 298.405 393.254 304.586 393.88 311.073C394.129 313.624 394.866 316.066 395.508 318.526C397.758 327.161 398.812 336.151 398.632 345.165L247.278 345.593C254.529 333.599 256.656 318.887 255.919 304.292C255.563 297.297 254.195 290.26 251.145 284.207C246.339 274.722 237.884 268.541 229.551 263.248C223.716 259.576 217.452 280.236 211.145 277.867C212.163 269.557 212.63 237.478 212.206 229.112C212.068 226.371 211.856 223.556 212.588 220.937C213.086 219.144 214.004 217.54 214.625 215.796C217.112 208.814 214.741 199.885 218.762 193.943C221.541 189.812 226.416 188.637 230.378 186.092C234.447 183.472 237.592 179.36 241.136 175.847C248.088 169.036 256.584 164.66 265.621 163.235C268.257 168.032 269.859 173.488 270.294 179.146C270.564 182.701 270.368 186.306 270.798 189.843C271.386 194.635 273.105 199.132 274.808 203.563C281.9 222.038 289.018 240.568 298.004 257.917C300.544 262.813 303.308 267.709 306.989 271.521C310.67 275.334 315.969 278.057 320.913 277.788Z" fill="black"/>
<path d="M312.909 152.054C338.021 152.054 358.378 128.568 358.378 99.5968C358.378 70.6254 338.021 47.1394 312.909 47.1394C287.797 47.1394 267.44 70.6254 267.44 99.5968C267.44 128.568 287.797 152.054 312.909 152.054Z" fill="#EFB7B9"/>
<path d="M289.05 169.501C290.296 155.928 285.406 142.648 279.868 130.587C277.216 124.822 274.373 119.076 273.041 112.742C271.71 106.408 272.092 99.2358 275.497 94.028C278.393 89.5974 282.987 87.2046 287.236 84.6037C299.229 77.2602 310.193 66.4652 315.465 52.029C312.484 53.9016 313.259 59.4888 315.89 61.955C318.521 64.4212 322.107 64.8986 325.342 66.0735C337.139 70.3573 344.215 83.9306 349.891 96.6104C350.819 98.6789 351.763 100.864 351.753 103.195C351.742 105.527 350.819 107.595 349.854 109.578C347.053 115.33 343.626 120.856 342.353 127.288C340.895 134.632 342.433 142.355 344.433 149.557C346.554 157.219 349.371 164.942 354.463 170.438C359.555 175.933 367.453 178.662 373.718 175.113C367.464 162.708 360.987 148.848 363.427 134.785C364.605 128.053 367.772 121.933 369.119 115.239C371.686 102.467 367.411 89.3281 363.215 77.1378L350.676 40.7567C348.761 35.1939 346.581 29.2579 342.189 26.1063C339.218 23.9828 335.622 23.432 332.142 23.0465C320.94 21.896 309.334 22.2754 298.905 27.0854C279.905 35.8426 267.992 57.4326 258.539 78.374C255.707 84.6466 252.911 91.3108 253.028 98.3851C253.092 102.265 254.031 106.041 254.794 109.823C257.903 125.22 258.072 141.174 258.232 156.98C258.354 169.11 257.807 180.541 253.208 191.587C259.51 193.031 268.649 196.929 274.887 194.078C283.019 190.369 288.026 178.944 289.05 169.501Z" fill="#454B69"/>
<g opacity="0.1">
<path opacity="0.1" d="M258.205 156.723C258.226 154.998 258.226 153.256 258.205 151.497C258.046 135.69 257.876 119.736 254.768 104.34C254.073 101.343 253.531 98.3027 253.145 95.2335C253.036 96.2873 252.988 97.3484 253.001 98.4096C253.065 102.289 254.004 106.065 254.768 109.847C257.86 125.152 258.051 141.008 258.205 156.723Z" fill="black"/>
<path opacity="0.1" d="M369.119 115.239C369.815 111.663 370.048 107.988 369.809 104.333C369.704 106.151 369.474 107.956 369.119 109.731C367.772 116.462 364.605 122.527 363.427 129.277C362.92 132.254 362.777 135.299 363.003 138.322C363.088 137.135 363.229 135.954 363.427 134.785C364.605 128.035 367.772 121.946 369.119 115.239Z" fill="black"/>
<path opacity="0.1" d="M351.339 100.386C351.598 99.517 351.737 98.6064 351.753 97.6875C351.753 95.3559 350.819 93.1712 349.891 91.1028C344.215 78.4229 337.16 64.8618 325.342 60.5659C322.106 59.3909 318.526 58.9136 315.89 56.4474C315.211 55.7733 314.656 54.9498 314.257 54.025C313.858 53.1003 313.624 52.093 313.567 51.0621C307.817 63.2401 297.94 72.5542 287.236 79.0961C282.992 81.6969 278.393 84.0897 275.497 88.5203C272.776 92.6816 271.986 98.0975 272.458 103.336C272.725 99.9739 273.776 96.7579 275.497 94.0279C278.393 89.5973 282.987 87.2046 287.236 84.6037C297.94 78.0619 307.817 68.7478 313.567 56.5698C313.624 57.6006 313.858 58.608 314.257 59.5327C314.656 60.4574 315.211 61.281 315.89 61.955C318.542 64.4029 322.106 64.8986 325.342 66.0735C337.139 70.3573 344.215 83.9306 349.891 96.6104C350.466 97.8189 350.951 99.0822 351.339 100.386V100.386Z" fill="black"/>
<path opacity="0.1" d="M354.463 164.93C349.371 159.422 346.565 151.711 344.433 144.05C343.153 139.746 342.299 135.289 341.886 130.764C341.393 137.049 342.746 143.481 344.433 149.557C346.554 157.219 349.371 164.942 354.463 170.438C359.555 175.933 367.453 178.662 373.718 175.113C372.965 173.626 372.217 172.114 371.474 170.591C365.655 172.481 358.972 169.789 354.463 164.93Z" fill="black"/>
<path opacity="0.1" d="M289.049 163.994C288.025 173.436 283.018 184.861 274.865 188.594C269.205 191.183 261.148 188.209 255 186.563C254.471 188.28 253.866 189.966 253.186 191.611C259.488 193.056 268.627 196.954 274.865 194.102C283.018 190.369 288.025 178.944 289.049 169.501C289.26 167.139 289.299 164.76 289.166 162.39C289.134 162.923 289.086 163.461 289.049 163.994Z" fill="black"/>
</g>
<path d="M353.323 315.723C345.127 314.224 336.81 311.33 328.684 313.276C323.974 314.402 319.667 317.106 315.752 320.374C317.905 322.363 320.42 324.138 321.788 326.904C322.638 328.818 323.276 330.847 323.687 332.944C324.547 336.616 325.411 340.361 325.544 344.18C325.676 347.998 325.013 351.976 323.04 355.054C333.373 356.229 343.388 353.292 353.466 350.422C354.618 350.188 355.715 349.677 356.686 348.922C358.277 347.478 358.744 344.908 358.754 342.564C358.754 338.378 357.736 334.296 356.701 330.282C355.471 325.466 354.559 320.509 353.323 315.723Z" fill="white"/>
<path d="M408.658 212.504C412.726 213.116 415.882 216.904 418.205 220.796C424.724 231.628 427.536 244.76 430.665 257.446C434.555 273.223 439.129 288.75 444.388 304.029C445.52 307.557 446.896 310.975 448.504 314.249C449.814 316.776 451.405 319.205 451.983 322.076C453.384 329.015 448.424 335.539 443.253 339.406C440.496 341.55 437.486 343.224 434.315 344.375C431.228 345.44 428.008 345.844 424.809 346.248L395.365 349.92C381.812 351.621 368.138 353.322 354.58 351.682C353.726 348.255 355.402 345.832 355.28 342.264C355.195 339.712 354.219 337.338 353.349 334.988C351.745 330.803 350.685 326.367 350.204 321.825C350.05 320.154 349.997 318.441 349.445 316.886C348.893 315.332 347.711 313.936 346.263 313.826C354.219 312.914 360.261 311.183 368.217 310.265C371.172 309.922 374.243 309.536 376.763 307.725C379.887 305.479 381.637 301.428 383.027 297.499C386.469 287.769 388.687 277.047 386.878 266.742C385.393 258.291 381.25 250.421 381.271 241.798C381.271 236.664 382.788 231.689 384.581 226.989C386.48 222.02 388.957 216.941 393.126 214.419C397.296 211.898 403.953 211.769 408.658 212.504Z" fill="#FFB800"/>
<path opacity="0.08" d="M408.658 212.504C412.726 213.116 415.882 216.904 418.205 220.796C424.724 231.628 427.536 244.76 430.665 257.446C434.555 273.223 439.129 288.75 444.388 304.029C445.52 307.557 446.896 310.975 448.504 314.249C449.814 316.776 451.405 319.205 451.983 322.076C453.384 329.015 448.424 335.539 443.253 339.406C440.496 341.55 437.486 343.224 434.315 344.375C431.228 345.44 428.008 345.844 424.809 346.248L395.365 349.92C381.812 351.621 368.138 353.322 354.58 351.682C353.726 348.255 355.402 345.832 355.28 342.264C355.195 339.712 354.219 337.338 353.349 334.988C351.745 330.803 350.685 326.367 350.204 321.825C350.05 320.154 349.997 318.441 349.445 316.886C348.893 315.332 347.711 313.936 346.263 313.826C354.219 312.914 360.261 311.183 368.217 310.265C371.172 309.922 374.243 309.536 376.763 307.725C379.887 305.479 381.637 301.428 383.027 297.499C386.469 287.769 388.687 277.047 386.878 266.742C385.393 258.291 381.25 250.421 381.271 241.798C381.271 236.664 382.788 231.689 384.581 226.989C386.48 222.02 388.957 216.941 393.126 214.419C397.296 211.898 403.953 211.769 408.658 212.504Z" fill="black"/>
<path d="M224.273 204.554C226.199 199.279 228.156 193.833 228.209 188.111C228.267 181.924 226.087 176.049 224.422 170.174C222.362 162.986 220.991 155.56 220.332 148.027C220.195 147.306 220.29 146.552 220.597 145.904C221.037 145.188 221.886 145.041 222.634 144.851C226.305 143.884 229.079 140.464 231.37 137.018C234.925 131.697 237.927 125.914 240.313 119.785C242.069 115.275 244.446 109.774 248.731 109.731C247.006 119.081 244.867 128.324 242.324 137.422C246.806 136.1 251.065 134.179 255.548 132.857C256.425 132.537 257.344 132.396 258.263 132.441C260.947 132.765 262.592 136.957 261.032 139.497C263.223 142.459 266.867 143.254 269.731 145.286C272.596 147.318 274.654 152.348 272.108 154.9C271.609 155.396 270.978 155.744 270.617 156.381C269.387 158.572 272.4 161.087 272.15 163.681C271.949 165.805 269.588 166.796 267.801 166.233C266.013 165.67 264.618 164.128 263.027 162.996C261.435 161.864 259.356 161.16 257.813 162.335C257.399 168.094 256.953 173.962 254.794 179.207C254.004 181.122 252.991 182.915 252.354 184.904C251.746 187.073 251.368 189.319 251.23 191.593L249.304 211.904C240.117 214.028 231.88 210.851 224.273 204.554Z" fill="#EFB7B9"/>
<path d="M222.029 222.76L220.337 209.548C220.176 208.472 220.085 207.384 220.067 206.292C220.067 203.233 221.234 200.314 222.364 197.529C231.726 202.572 241.846 204.365 252.174 204.371C253.537 204.371 255.091 204.224 255.94 202.994C257.696 205.325 257.749 209.077 257.001 212.039C256.253 215.001 254.816 217.669 253.861 220.557C253.378 222.02 252.986 223.617 252.063 224.743C250.63 226.524 248.307 226.83 246.196 226.818C243.975 226.801 241.76 226.558 239.576 226.089C233.922 224.878 227.684 221.591 222.029 222.76Z" fill="white"/>
<path d="M256.948 222.222C249.681 221.267 242.462 219.921 235.29 218.183C231.773 217.332 228.225 216.384 224.639 216.549C222.305 216.659 219.796 217.198 217.743 215.863C219.743 223.715 219.865 231.989 217.473 239.693C216.057 244.283 213.898 248.561 212.858 253.285C210.694 263.168 213.664 273.945 210.959 283.65C210.673 284.919 210.111 286.082 209.325 287.028C208.498 287.904 207.368 288.356 206.604 289.305C205.48 290.7 205.411 292.799 205.406 294.703L205.358 311.562C205.326 322.296 205.448 333.678 210.36 342.772C215.961 353.175 227.753 358.567 238.017 355.403C240.746 354.598 243.302 353.154 245.528 351.162C249.092 347.894 251.362 343.17 253.585 338.568C256.237 333.06 258.889 327.43 259.743 321.231C260.348 316.843 260.009 312.364 259.574 307.951C257.176 283.473 251.972 259.203 253.092 234.632C253.259 230.141 254.604 225.813 256.948 222.222V222.222Z" fill="#FFB800"/>
<path d="M287.321 323.807C283.634 324.052 279.921 324.297 276.25 323.807C273.598 323.44 271.01 322.688 268.379 322.173C261.194 320.835 253.843 321.305 246.83 323.553C239.817 325.801 233.309 329.773 227.753 335.196C225.716 337.203 223.658 340.281 224.782 343.09C225.992 346.113 229.689 346.028 232.537 345.465C229.463 347.159 226.747 349.609 224.581 352.643C223.785 353.763 223.032 355.091 223.186 356.541C223.509 359.57 227.074 360.121 229.71 359.858C228.851 360.923 229.429 362.808 230.522 363.53C231.614 364.252 232.972 364.105 234.208 363.842C236.941 363.265 239.581 362.21 242.037 360.715C241.539 362.214 242.403 363.97 243.629 364.717C244.854 365.464 246.345 365.409 247.718 365.152C254.2 363.928 259.611 358.726 265.933 356.682C276.044 353.42 286.62 358.622 297.128 358.989C300.417 359.105 303.791 358.72 306.788 357.153C310.463 355.226 313.429 351.609 317.311 350.324C321.624 348.904 326.573 350.538 330.519 348.084C333.389 346.303 330.8 332.577 330.068 329.933C328.726 325.099 327.379 321.892 322.907 321.402C311.593 320.123 298.72 323.049 287.321 323.807Z" fill="#EFB7B9"/>
<path d="M315.545 320.062C315.545 320.062 332.673 336.787 322.791 355.036L341.886 347.429V331.463C341.886 330.704 334.635 319.303 334.635 319.303L326.069 317.78L315.545 320.062Z" fill="white"/>
<path d="M136.21 319.028H142.634C146.151 319.028 149.524 320.64 152.011 323.509C154.498 326.378 155.895 330.269 155.895 334.327V357.037H122.949V334.327C122.949 332.318 123.292 330.329 123.959 328.472C124.625 326.616 125.602 324.93 126.834 323.509C128.065 322.088 129.527 320.961 131.136 320.193C132.745 319.424 134.469 319.028 136.21 319.028Z" fill="#3F3D56"/>
<path opacity="0.1" d="M136.21 319.028H142.634C146.151 319.028 149.524 320.64 152.011 323.509C154.498 326.378 155.895 330.269 155.895 334.327V357.037H122.949V334.327C122.949 332.318 123.292 330.329 123.959 328.472C124.625 326.616 125.602 324.93 126.834 323.509C128.065 322.088 129.527 320.961 131.136 320.193C132.745 319.424 134.469 319.028 136.21 319.028Z" fill="black"/>
<path d="M138.104 327.387C139.56 327.387 140.74 326.026 140.74 324.346C140.74 322.666 139.56 321.304 138.104 321.304C136.648 321.304 135.468 322.666 135.468 324.346C135.468 326.026 136.648 327.387 138.104 327.387Z" fill="#3F3D56"/>
<path d="M138.104 323.587C139.56 323.587 140.74 322.225 140.74 320.546C140.74 318.866 139.56 317.504 138.104 317.504C136.648 317.504 135.468 318.866 135.468 320.546C135.468 322.225 136.648 323.587 138.104 323.587Z" fill="#3F3D56"/>
<path d="M138.104 319.787C139.56 319.787 140.74 318.425 140.74 316.745C140.74 315.066 139.56 313.704 138.104 313.704C136.648 313.704 135.468 315.066 135.468 316.745C135.468 318.425 136.648 319.787 138.104 319.787Z" fill="#3F3D56"/>
<path d="M138.104 315.987C139.56 315.987 140.74 314.625 140.74 312.945C140.74 311.265 139.56 309.904 138.104 309.904C136.648 309.904 135.468 311.265 135.468 312.945C135.468 314.625 136.648 315.987 138.104 315.987Z" fill="#3F3D56"/>
<path d="M138.104 312.186C139.56 312.186 140.74 310.825 140.74 309.145C140.74 307.465 139.56 306.103 138.104 306.103C136.648 306.103 135.468 307.465 135.468 309.145C135.468 310.825 136.648 312.186 138.104 312.186Z" fill="#3F3D56"/>
<path d="M138.104 308.386C139.56 308.386 140.74 307.024 140.74 305.345C140.74 303.665 139.56 302.303 138.104 302.303C136.648 302.303 135.468 303.665 135.468 305.345C135.468 307.024 136.648 308.386 138.104 308.386Z" fill="#3F3D56"/>
<path d="M138.104 304.58C139.56 304.58 140.74 303.218 140.74 301.538C140.74 299.858 139.56 298.497 138.104 298.497C136.648 298.497 135.468 299.858 135.468 301.538C135.468 303.218 136.648 304.58 138.104 304.58Z" fill="#3F3D56"/>
<path d="M142.061 306.103C143.517 306.103 144.697 304.742 144.697 303.062C144.697 301.382 143.517 300.02 142.061 300.02C140.605 300.02 139.425 301.382 139.425 303.062C139.425 304.742 140.605 306.103 142.061 306.103Z" fill="#3F3D56"/>
<path d="M144.697 304.58C146.153 304.58 147.334 303.218 147.334 301.538C147.334 299.858 146.153 298.497 144.697 298.497C143.241 298.497 142.061 299.858 142.061 301.538C142.061 303.218 143.241 304.58 144.697 304.58Z" fill="#3F3D56"/>
<path d="M147.334 303.062C148.79 303.062 149.97 301.7 149.97 300.02C149.97 298.341 148.79 296.979 147.334 296.979C145.878 296.979 144.697 298.341 144.697 300.02C144.697 301.7 145.878 303.062 147.334 303.062Z" fill="#3F3D56"/>
<path d="M138.104 300.779C139.56 300.779 140.74 299.418 140.74 297.738C140.74 296.058 139.56 294.696 138.104 294.696C136.648 294.696 135.468 296.058 135.468 297.738C135.468 299.418 136.648 300.779 138.104 300.779Z" fill="#3F3D56"/>
<path d="M138.104 296.979C139.56 296.979 140.74 295.617 140.74 293.938C140.74 292.258 139.56 290.896 138.104 290.896C136.648 290.896 135.468 292.258 135.468 293.938C135.468 295.617 136.648 296.979 138.104 296.979Z" fill="#3F3D56"/>
<path d="M138.104 293.179C139.56 293.179 140.74 291.817 140.74 290.137C140.74 288.458 139.56 287.096 138.104 287.096C136.648 287.096 135.468 288.458 135.468 290.137C135.468 291.817 136.648 293.179 138.104 293.179Z" fill="#3F3D56"/>
<path d="M138.104 289.378C139.56 289.378 140.74 288.017 140.74 286.337C140.74 284.657 139.56 283.296 138.104 283.296C136.648 283.296 135.468 284.657 135.468 286.337C135.468 288.017 136.648 289.378 138.104 289.378Z" fill="#3F3D56"/>
<path d="M149.052 276.527C148.394 276.637 147.737 276.717 147.079 276.766C147.69 276.15 148.258 275.479 148.776 274.759C148.411 273.481 147.874 272.277 147.185 271.191C146.532 271.614 145.809 271.877 145.063 271.962C144.411 272.072 143.753 272.152 143.095 272.207C143.96 271.393 144.766 270.169 145.615 269.147C143.713 267.159 141.277 265.985 138.715 265.822C136.152 265.659 133.619 266.516 131.54 268.252C129.46 269.987 127.961 272.494 127.293 275.352C126.624 278.211 126.828 281.248 127.869 283.954C128.911 286.66 130.726 288.871 133.012 290.216C135.298 291.562 137.916 291.96 140.426 291.345C142.936 290.729 145.187 289.137 146.801 286.835C148.415 284.532 149.294 281.66 149.291 278.7C149.291 277.955 149.234 277.212 149.121 276.478L149.052 276.527Z" fill="#FFB800"/>
<path d="M157.841 291.637C157.169 292.114 156.41 292.405 155.624 292.487C154.972 292.597 154.314 292.683 153.656 292.732C154.355 292.009 155.008 291.227 155.608 290.394C154.019 289.916 152.332 290.139 150.878 291.02C149.423 291.9 148.305 293.375 147.743 295.156C147.181 296.936 147.215 298.895 147.838 300.648C148.461 302.402 149.628 303.824 151.112 304.637C152.596 305.45 154.289 305.596 155.861 305.045C157.432 304.495 158.77 303.288 159.611 301.66C160.452 300.032 160.737 298.101 160.41 296.244C160.083 294.387 159.167 292.738 157.841 291.618V291.637Z" fill="#FFB800"/>
<path d="M134.152 306.103C135.608 306.103 136.789 304.742 136.789 303.062C136.789 301.382 135.608 300.02 134.152 300.02C132.696 300.02 131.516 301.382 131.516 303.062C131.516 304.742 132.696 306.103 134.152 306.103Z" fill="#3F3D56"/>
<path d="M131.516 304.58C132.972 304.58 134.152 303.218 134.152 301.538C134.152 299.858 132.972 298.497 131.516 298.497C130.06 298.497 128.88 299.858 128.88 301.538C128.88 303.218 130.06 304.58 131.516 304.58Z" fill="#3F3D56"/>
<path d="M128.88 303.062C130.336 303.062 131.516 301.7 131.516 300.02C131.516 298.341 130.336 296.979 128.88 296.979C127.424 296.979 126.243 298.341 126.243 300.02C126.243 301.7 127.424 303.062 128.88 303.062Z" fill="#3F3D56"/>
<path d="M118.372 291.637C119.044 292.114 119.803 292.405 120.589 292.487C121.241 292.597 121.899 292.683 122.557 292.732C121.857 292.01 121.204 291.229 120.605 290.394C122.194 289.916 123.881 290.139 125.336 291.02C126.79 291.9 127.908 293.375 128.47 295.156C129.032 296.936 128.998 298.895 128.375 300.648C127.752 302.402 126.585 303.824 125.101 304.637C123.617 305.45 121.924 305.596 120.353 305.045C118.781 304.495 117.444 303.288 116.602 301.66C115.761 300.032 115.476 298.101 115.803 296.244C116.131 294.387 117.046 292.738 118.372 291.618V291.637Z" fill="#FFB800"/>
<path d="M136.21 321.28H142.634C146.151 321.28 149.524 322.892 152.011 325.761C154.498 328.63 155.895 332.522 155.895 336.579V356.694C155.895 357.382 155.658 358.042 155.236 358.529C154.814 359.016 154.242 359.289 153.646 359.289H125.183C124.586 359.289 124.014 359.016 123.592 358.529C123.17 358.042 122.934 357.382 122.934 356.694V336.579C122.934 334.568 123.277 332.578 123.944 330.72C124.612 328.863 125.59 327.175 126.823 325.755C128.056 324.334 129.52 323.207 131.131 322.439C132.741 321.672 134.468 321.278 136.21 321.28V321.28Z" fill="#3F3D56"/>
<g opacity="0.1">
<path opacity="0.1" d="M149.233 277.359C148.966 277.688 148.682 277.999 148.384 278.29C148.686 278.29 148.983 278.235 149.286 278.198C149.275 277.916 149.259 277.635 149.233 277.359Z" fill="black"/>
<path opacity="0.1" d="M144.427 273.724C145.09 273.675 145.742 273.596 146.4 273.486C146.99 273.4 147.567 273.218 148.113 272.947C147.845 272.335 147.536 271.748 147.19 271.191C146.86 271.423 146.503 271.598 146.129 271.711C145.609 272.434 145.04 273.107 144.427 273.724Z" fill="black"/>
<path opacity="0.1" d="M128.222 280.254C128.218 277.934 128.757 275.656 129.781 273.659C130.805 271.662 132.277 270.021 134.042 268.909C135.806 267.796 137.798 267.253 139.808 267.337C141.818 267.421 143.771 268.129 145.461 269.386L145.631 269.178C144.528 268.045 143.241 267.176 141.845 266.62C140.45 266.063 138.972 265.831 137.499 265.937C136.025 266.042 134.584 266.483 133.258 267.234C131.933 267.985 130.749 269.031 129.776 270.312C128.802 271.593 128.058 273.083 127.586 274.697C127.114 276.312 126.924 278.018 127.026 279.717C127.128 281.417 127.521 283.076 128.181 284.6C128.842 286.124 129.757 287.481 130.874 288.595C129.159 286.267 128.218 283.31 128.222 280.254Z" fill="black"/>
</g>
<g opacity="0.1">
<path opacity="0.1" d="M153.656 294.25C154.314 294.201 154.972 294.121 155.624 294.011C156.411 293.927 157.17 293.633 157.841 293.154C158.586 293.787 159.207 294.594 159.664 295.521C160.121 296.449 160.404 297.477 160.494 298.539C160.519 298.273 160.532 298.006 160.531 297.738C160.536 296.549 160.298 295.376 159.838 294.313C159.377 293.25 158.706 292.327 157.879 291.618C157.206 292.095 156.447 292.387 155.661 292.469L155.131 292.548C154.678 293.159 154.185 293.727 153.656 294.25Z" fill="black"/>
<path opacity="0.1" d="M153.922 291.655C154.142 291.658 154.361 291.676 154.579 291.71C154.924 291.288 155.264 290.835 155.608 290.394C154.633 290.094 153.611 290.056 152.621 290.285C151.632 290.513 150.701 291.001 149.901 291.711C149.101 292.421 148.453 293.334 148.008 294.379C147.563 295.424 147.332 296.573 147.334 297.738C147.334 297.995 147.334 298.246 147.365 298.497C147.528 296.621 148.29 294.883 149.501 293.619C150.713 292.355 152.288 291.655 153.922 291.655V291.655Z" fill="black"/>
</g>
<g opacity="0.1">
<path opacity="0.1" d="M122.557 294.25C121.899 294.201 121.241 294.121 120.589 294.011C119.803 293.927 119.044 293.633 118.372 293.154C117.627 293.787 117.006 294.594 116.549 295.521C116.092 296.449 115.81 297.477 115.72 298.539C115.694 298.273 115.682 298.006 115.683 297.738C115.678 296.549 115.915 295.376 116.376 294.313C116.836 293.25 117.508 292.327 118.335 291.618C119.007 292.095 119.766 292.387 120.552 292.469L121.082 292.548C121.532 293.162 122.025 293.731 122.557 294.25V294.25Z" fill="black"/>
<path opacity="0.1" d="M122.292 291.655C122.07 291.658 121.849 291.676 121.629 291.71C121.289 291.288 120.95 290.835 120.605 290.394C121.58 290.094 122.602 290.056 123.592 290.285C124.582 290.513 125.513 291.001 126.313 291.711C127.113 292.421 127.76 293.334 128.206 294.379C128.651 295.424 128.881 296.573 128.88 297.738C128.88 297.995 128.88 298.246 128.848 298.497C128.685 296.621 127.924 294.883 126.712 293.619C125.501 292.355 123.925 291.655 122.292 291.655V291.655Z" fill="black"/>
</g>
<path d="M104.416 366.645H52.5926C52.0088 366.645 51.4489 366.377 51.036 365.901C50.6232 365.425 50.3913 364.779 50.3913 364.105V335.808C50.3912 335.379 50.4851 334.958 50.6643 334.582C50.8435 334.207 51.1021 333.89 51.4161 333.661C51.73 333.432 52.0891 333.298 52.4599 333.272C52.8308 333.246 53.2012 333.329 53.5368 333.513C68.4261 341.664 84.4664 344.461 103.398 333.642C103.733 333.451 104.105 333.361 104.479 333.382C104.853 333.403 105.216 333.533 105.534 333.76C105.852 333.987 106.115 334.303 106.298 334.68C106.481 335.056 106.578 335.48 106.58 335.912V364.062C106.585 364.396 106.533 364.727 106.427 365.037C106.321 365.348 106.163 365.631 105.962 365.871C105.761 366.111 105.521 366.302 105.256 366.435C104.99 366.568 104.705 366.639 104.416 366.645V366.645Z" fill="#FFB800"/>
<path opacity="0.1" d="M104.416 366.645H52.5926C52.0088 366.645 51.4489 366.377 51.036 365.901C50.6232 365.425 50.3913 364.779 50.3913 364.105V335.808C50.3912 335.379 50.4851 334.958 50.6643 334.582C50.8435 334.207 51.1021 333.89 51.4161 333.661C51.73 333.432 52.0891 333.298 52.4599 333.272C52.8308 333.246 53.2012 333.329 53.5368 333.513C68.4261 341.664 84.4664 344.461 103.398 333.642C103.733 333.451 104.105 333.361 104.479 333.382C104.853 333.403 105.216 333.533 105.534 333.76C105.852 333.987 106.115 334.303 106.298 334.68C106.481 335.056 106.578 335.48 106.58 335.912V364.062C106.585 364.396 106.533 364.727 106.427 365.037C106.321 365.348 106.163 365.631 105.962 365.871C105.761 366.111 105.521 366.302 105.256 366.435C104.99 366.568 104.705 366.639 104.416 366.645V366.645Z" fill="black"/>
<path d="M78.1437 345.134C79.8369 345.134 81.2096 343.06 81.2096 340.502C81.2096 337.943 79.8369 335.869 78.1437 335.869C76.4504 335.869 75.0777 337.943 75.0777 340.502C75.0777 343.06 76.4504 345.134 78.1437 345.134Z" fill="#3F3D56"/>
<path d="M78.1437 339.474C79.8369 339.474 81.2096 337.4 81.2096 334.841C81.2096 332.283 79.8369 330.209 78.1437 330.209C76.4504 330.209 75.0777 332.283 75.0777 334.841C75.0777 337.4 76.4504 339.474 78.1437 339.474Z" fill="#3F3D56"/>
<path d="M78.1437 333.807C79.8369 333.807 81.2096 331.733 81.2096 329.174C81.2096 326.616 79.8369 324.542 78.1437 324.542C76.4504 324.542 75.0777 326.616 75.0777 329.174C75.0777 331.733 76.4504 333.807 78.1437 333.807Z" fill="#3F3D56"/>
<path d="M78.1437 328.146C79.8369 328.146 81.2096 326.072 81.2096 323.514C81.2096 320.955 79.8369 318.881 78.1437 318.881C76.4504 318.881 75.0777 320.955 75.0777 323.514C75.0777 326.072 76.4504 328.146 78.1437 328.146Z" fill="#3F3D56"/>
<path d="M78.1437 322.479C79.8369 322.479 81.2096 320.405 81.2096 317.847C81.2096 315.288 79.8369 313.214 78.1437 313.214C76.4504 313.214 75.0777 315.288 75.0777 317.847C75.0777 320.405 76.4504 322.479 78.1437 322.479Z" fill="#3F3D56"/>
<path d="M78.1437 316.813C79.8369 316.813 81.2096 314.739 81.2096 312.18C81.2096 309.622 79.8369 307.548 78.1437 307.548C76.4504 307.548 75.0777 309.622 75.0777 312.18C75.0777 314.739 76.4504 316.813 78.1437 316.813Z" fill="#3F3D56"/>
<path d="M78.1437 311.152C79.8369 311.152 81.2096 309.078 81.2096 306.52C81.2096 303.961 79.8369 301.887 78.1437 301.887C76.4504 301.887 75.0777 303.961 75.0777 306.52C75.0777 309.078 76.4504 311.152 78.1437 311.152Z" fill="#3F3D56"/>
<path d="M89.6435 267.758C90.0598 267.14 90.4407 266.492 90.7839 265.818L82.7213 264.288L91.4417 264.361C92.283 262.258 92.742 259.979 92.7903 257.663C92.8387 255.348 92.4754 253.046 91.7228 250.898L80.0267 257.899L90.8158 248.72C89.8055 246.704 88.4463 244.95 86.8228 243.567C85.1994 242.184 83.3464 241.201 81.3794 240.68C79.4124 240.16 77.3735 240.112 75.3898 240.54C73.406 240.968 71.5199 241.862 69.849 243.168C68.178 244.474 66.758 246.162 65.6775 248.129C64.5969 250.095 63.879 252.297 63.5683 254.598C63.2577 256.899 63.361 259.248 63.8719 261.501C64.3828 263.753 65.2902 265.86 66.5377 267.69C65.8823 268.646 65.3202 269.683 64.8616 270.781L75.3217 277.121L64.1826 272.776C63.4019 275.447 63.2098 278.3 63.6237 281.077C64.0377 283.855 65.0446 286.47 66.5537 288.687C64.8484 291.188 63.7875 294.193 63.4925 297.357C63.1975 300.521 63.6801 303.717 64.8852 306.579C66.0904 309.442 67.9694 311.855 70.3074 313.544C72.6455 315.232 75.3482 316.128 78.1065 316.128C80.8649 316.128 83.5676 315.232 85.9056 313.544C88.2437 311.855 90.1227 309.442 91.3278 306.579C92.533 303.717 93.0156 300.521 92.7206 297.357C92.4255 294.193 91.3647 291.188 89.6594 288.687C91.6968 285.698 92.8044 282.006 92.8044 278.204C92.8044 274.402 91.6968 270.71 89.6594 267.721L89.6435 267.758Z" fill="#FFB800"/>
<path opacity="0.1" d="M63.3816 278.241C63.3768 282.044 64.4852 285.738 66.5271 288.724C64.8218 291.225 63.761 294.229 63.466 297.393C63.1709 300.558 63.6536 303.754 64.8587 306.616C66.0638 309.479 67.9428 311.892 70.2809 313.581C72.6189 315.269 75.3216 316.165 78.08 316.165C80.8383 316.165 83.5411 315.269 85.8791 313.581C88.2171 311.892 90.0961 309.479 91.3013 306.616C92.5064 303.754 92.989 300.558 92.694 297.393C92.399 294.229 91.3382 291.225 89.6328 288.724C91.6008 285.841 63.3816 276.338 63.3816 278.241Z" fill="black"/>
<path d="M104.416 368.144H52.5926C52.0088 368.144 51.4489 367.876 51.036 367.4C50.6232 366.924 50.3913 366.278 50.3913 365.604V335.808C50.3912 335.379 50.4851 334.958 50.6643 334.582C50.8435 334.207 51.1021 333.89 51.4161 333.661C51.73 333.432 52.0891 333.298 52.4599 333.272C52.8308 333.246 53.2012 333.329 53.5368 333.513C68.4261 341.664 80.2336 351.168 103.398 333.642C104.771 332.601 106.58 334.021 106.58 335.912V365.592C106.583 366.26 106.358 366.903 105.952 367.381C105.547 367.859 104.995 368.133 104.416 368.144Z" fill="#FFB800"/>
<path d="M488.971 359.717L412.514 371.388L408.689 371.969L371.31 348.935V343.543L488.122 328.844L488.971 359.717Z" fill="#9C9CA1"/>
<path d="M392.973 351.382L475.8 340.116L474.951 357.759L410.435 363.218L392.973 351.382Z" fill="#939498"/>
<path opacity="0.4" d="M412.514 365.592V371.381L408.689 371.993L371.304 348.935V343.543L406.987 365.574C406.987 365.574 411.665 366.082 412.514 365.592Z" fill="black"/>
<path d="M427.191 273.706L410.026 365.531C409.853 366.45 409.874 367.404 410.088 368.312C410.302 369.22 410.702 370.055 411.254 370.747C411.807 371.439 412.495 371.967 413.262 372.288C414.029 372.608 414.851 372.71 415.659 372.587L524.255 356.003C525.201 355.859 526.093 355.411 526.828 354.709C527.564 354.008 528.113 353.082 528.414 352.037L551.843 270.524C552.102 269.619 552.166 268.656 552.031 267.716C551.895 266.777 551.563 265.89 551.064 265.131C550.565 264.372 549.914 263.765 549.166 263.361C548.418 262.957 547.597 262.769 546.772 262.813L431.922 269.104C430.805 269.165 429.736 269.649 428.881 270.481C428.026 271.313 427.432 272.446 427.191 273.706V273.706Z" fill="#3F3D56"/>
<path d="M486.862 307.582C487.129 304.658 486.024 302.127 484.396 301.93C482.767 301.732 481.231 303.943 480.965 306.867C480.698 309.791 481.803 312.322 483.431 312.519C485.06 312.717 486.596 310.506 486.862 307.582Z" fill="white"/>
</g>
<defs>
<clipPath id="clip0">
<rect width="610" height="384" fill="white"/>
</clipPath>
</defs>
</svg>
